<svg width="22" height="22" viewBox="0 0 22 22" fill="none" xmlns="http://www.w3.org/2000/svg">
<path d="M10.9384 3.88371e-06C10.2843 -5.8582e-05 9.69656 -0.000114493 9.22085 0.0638424C8.70149 0.133668 8.16868 0.295802 7.73224 0.732241C7.2958 1.16868 7.13367 1.70149 7.06384 2.22085C6.99989 2.69656 6.99994 3.28427 7 3.9384L7.00001 5.00001C7.00001 5.73538 6.99788 6.18632 6.95401 6.51267C6.91544 6.79952 6.86059 6.84741 6.85408 6.85309L6.85309 6.85408C6.84741 6.86059 6.79951 6.91544 6.51267 6.95401C6.18632 6.99788 5.73538 7.00001 5.00001 7.00001L3.9384 7C3.28427 6.99994 2.69656 6.99989 2.22085 7.06384C1.70149 7.13367 1.16868 7.2958 0.732241 7.73224C0.295802 8.16868 0.133668 8.70149 0.0638424 9.22085C-0.000114493 9.69656 -5.8582e-05 10.2843 3.88371e-06 10.9384V11.0616C-5.8582e-05 11.7157 -0.000114493 12.3035 0.0638424 12.7792C0.133668 13.2985 0.295802 13.8313 0.732241 14.2678C1.16868 14.7042 1.70149 14.8663 2.22085 14.9362C2.69656 15.0001 3.28427 15.0001 3.9384 15L5.00001 15C5.73538 15 6.18632 15.0021 6.51267 15.046C6.79951 15.0846 6.84741 15.1394 6.85309 15.1459L6.85408 15.1469C6.86059 15.1526 6.91544 15.2005 6.95401 15.4873C6.99788 15.8137 7.00001 16.2646 7.00001 17L7 18.0616C6.99994 18.7157 6.99989 19.3035 7.06384 19.7792C7.13367 20.2985 7.2958 20.8313 7.73224 21.2678C8.16868 21.7042 8.70149 21.8663 9.22085 21.9362C9.69656 22.0001 10.2843 22.0001 10.9384 22H11.0616C11.7157 22.0001 12.3035 22.0001 12.7792 21.9362C13.2985 21.8663 13.8313 21.7042 14.2678 21.2678C14.7042 20.8313 14.8663 20.2985 14.9362 19.7792C15.0001 19.3035 15.0001 18.7157 15 18.0616L15 17C15 16.2646 15.0021 15.8137 15.046 15.4873C15.0846 15.2005 15.1394 15.1526 15.1459 15.1469L15.1469 15.1459C15.1526 15.1394 15.2005 15.0846 15.4873 15.046C15.8137 15.0021 16.2646 15 17 15L18.0616 15C18.7157 15.0001 19.3035 15.0001 19.7792 14.9362C20.2985 14.8663 20.8313 14.7042 21.2678 14.2678C21.7042 13.8313 21.8663 13.2985 21.9362 12.7792C22.0001 12.3035 22.0001 11.7157 22 11.0616V10.9384C22.0001 10.2843 22.0001 9.69656 21.9362 9.22085C21.8663 8.70149 21.7042 8.16868 21.2678 7.73224C20.8313 7.2958 20.2985 7.13367 19.7792 7.06384C19.3035 6.99989 18.7157 6.99994 18.0616 7L17 7.00001C16.2646 7.00001 15.8137 6.99788 15.4873 6.95401C15.2005 6.91544 15.1526 6.86059 15.1469 6.85408L15.1459 6.85309C15.1394 6.84741 15.0846 6.79951 15.046 6.51267C15.0021 6.18632 15 5.73538 15 5.00001L15 3.9384C15.0001 3.28427 15.0001 2.69656 14.9362 2.22085C14.8663 1.70149 14.7042 1.16868 14.2678 0.732241C13.8313 0.295802 13.2985 0.133668 12.7792 0.0638424C12.3035 -0.000114493 11.7157 -5.8582e-05 11.0616 3.88371e-06H10.9384Z" fill="#0B4A6F"/>
</svg>
