<svg width="24" height="25" viewBox="0 0 24 25" fill="none" xmlns="http://www.w3.org/2000/svg">
<path d="M20.83 8.94654L14.28 3.70654C13 2.68654 11 2.67654 9.72996 3.69654L3.17996 8.94654C2.23996 9.69654 1.66996 11.1965 1.86996 12.3765L3.12996 19.9165C3.41996 21.6065 4.98996 22.9365 6.69996 22.9365H17.3C18.99 22.9365 20.59 21.5765 20.88 19.9065L22.14 12.3665C22.32 11.1965 21.75 9.69654 20.83 8.94654ZM12.75 18.9365C12.75 19.3465 12.41 19.6865 12 19.6865C11.59 19.6865 11.25 19.3465 11.25 18.9365V15.9365C11.25 15.5265 11.59 15.1865 12 15.1865C12.41 15.1865 12.75 15.5265 12.75 15.9365V18.9365Z" fill="#0B4A6F"/>
</svg>
