<svg width="24" height="25" viewBox="0 0 24 25" fill="none" xmlns="http://www.w3.org/2000/svg">
<path d="M17.98 11.7265V15.7265C17.98 15.9865 17.97 16.2365 17.94 16.4765C17.71 19.1765 16.12 20.5165 13.19 20.5165H12.79C12.54 20.5165 12.3 20.6365 12.15 20.8365L10.95 22.4365C10.42 23.1465 9.56 23.1465 9.03 22.4365L7.82999 20.8365C7.69999 20.6665 7.41 20.5165 7.19 20.5165H6.79001C3.60001 20.5165 2 19.7265 2 15.7265V11.7265C2 8.79653 3.35001 7.20653 6.04001 6.97653C6.28001 6.94653 6.53001 6.93652 6.79001 6.93652H13.19C16.38 6.93652 17.98 8.53653 17.98 11.7265Z" stroke="#344054" stroke-width="1.5" stroke-miterlimit="10" stroke-linecap="round" stroke-linejoin="round"/>
<path d="M21.98 7.72653V11.7265C21.98 14.6665 20.63 16.2465 17.94 16.4765C17.97 16.2365 17.98 15.9865 17.98 15.7265V11.7265C17.98 8.53653 16.38 6.93652 13.19 6.93652H6.79004C6.53004 6.93652 6.28004 6.94653 6.04004 6.97653C6.27004 4.28653 7.86004 2.93652 10.79 2.93652H17.19C20.38 2.93652 21.98 4.53653 21.98 7.72653Z" stroke="#344054" stroke-width="1.5" stroke-miterlimit="10" stroke-linecap="round" stroke-linejoin="round"/>
<path d="M13.4955 14.1865H13.5045" stroke="#344054" stroke-width="1.5" stroke-linecap="round" stroke-linejoin="round"/>
<path d="M9.9955 14.1865H10.0045" stroke="#344054" stroke-width="1.5" stroke-linecap="round" stroke-linejoin="round"/>
<path d="M6.4955 14.1865H6.5045" stroke="#344054" stroke-width="1.5" stroke-linecap="round" stroke-linejoin="round"/>
</svg>
