<svg width="15" height="22" viewBox="0 0 15 22" fill="none" xmlns="http://www.w3.org/2000/svg">
<path d="M3.5 0H7.5V2H6.5V3H7.5C8.05228 3 8.5 3.44772 8.5 4V6.02476C12.0325 6.35824 14.4995 10.0107 14.4995 14C14.4995 16.3038 13.6768 18.4952 12.3012 20H14V22H2V20H3.64503C2.77781 19.0539 2.12956 17.8382 1.76925 16.5H0.5V14.5H7.5V16.5H3.85423C4.60346 18.661 6.26645 20 7.97155 20C10.2651 20 12.4995 17.5466 12.4995 14C12.4995 10.7268 10.5964 8.38481 8.5 8.04313V10.5C8.5 11.0523 8.05228 11.5 7.5 11.5H6.5V13H4.5V11.5H3.5C2.94772 11.5 2.5 11.0523 2.5 10.5V4C2.5 3.44772 2.94772 3 3.5 3H4.5V2H3.5V0Z" fill="#0B4A6F"/>
</svg>
