<svg width="22" height="22" viewBox="0 0 22 22" fill="none" xmlns="http://www.w3.org/2000/svg">
<path d="M20.3311 10.7432L19.5 9.99531V17.7096C19.5 18.296 19.5001 18.8018 19.4624 19.2168C19.4227 19.6557 19.3346 20.0903 19.0981 20.4999C18.8348 20.956 18.4561 21.3347 18 21.598C17.5904 21.8345 17.1558 21.9226 16.7169 21.9624C16.3018 22 15.796 22 15.2096 21.9999L15.1312 22C14.8504 22 14.5771 22 14.3465 21.9791C14.0923 21.9561 13.7936 21.9015 13.5 21.732C13.196 21.5565 12.9435 21.304 12.768 21C12.5985 20.7064 12.5439 20.4076 12.5208 20.1535C12.4999 19.9229 12.5 19.6496 12.5 19.3688L12.5 15.9999C12.5 15.5003 12.4979 15.2261 12.4723 15.0359L12.4713 15.0286L12.464 15.0276C12.2739 15.0021 11.9997 14.9999 11.5 14.9999H10.5C10.0003 14.9999 9.72619 15.0021 9.53599 15.0276L9.52871 15.0286L9.52771 15.0359C9.50214 15.2261 9.50002 15.5003 9.50002 15.9999L9.50002 19.3688C9.50006 19.6496 9.5001 19.9229 9.47919 20.1535C9.45616 20.4076 9.40158 20.7064 9.23207 20.9999C9.05653 21.304 8.80406 21.5565 8.50002 21.732C8.20643 21.9015 7.90772 21.9561 7.65358 21.9791C7.42293 22 7.14963 22 6.86892 22L6.79041 21.9999C6.20401 22 5.69822 22 5.28315 21.9624C4.84424 21.9226 4.40964 21.8345 4.00002 21.598C3.54396 21.3347 3.16525 20.956 2.90194 20.4999C2.66545 20.0903 2.57737 19.6557 2.5376 19.2168C2.49998 18.8018 2.5 18.296 2.50002 17.7096L2.50002 9.99531L1.66898 10.7432L0.331055 9.25665L7.70093 2.62377C8.29789 2.08644 8.81543 1.6206 9.28265 1.29754C9.78521 0.950043 10.3349 0.690674 11 0.690674C11.6652 0.690674 12.2148 0.950044 12.7174 1.29754C13.1846 1.6206 13.7021 2.08642 14.2991 2.62374L21.669 9.25665L20.3311 10.7432Z" fill="#0B4A6F"/>
</svg>
