<svg width="24" height="25" viewBox="0 0 24 25" fill="none" xmlns="http://www.w3.org/2000/svg">
<path d="M9 22.9365H15C20 22.9365 22 20.9365 22 15.9365V9.93652C22 4.93652 20 2.93652 15 2.93652H9C4 2.93652 2 4.93652 2 9.93652V15.9365C2 20.9365 4 22.9365 9 22.9365Z" stroke="#344054" stroke-width="1.5" stroke-linecap="round" stroke-linejoin="round"/>
<path d="M15.5698 19.4366V15.5366" stroke="#344054" stroke-width="1.5" stroke-miterlimit="10" stroke-linecap="round" stroke-linejoin="round"/>
<path d="M15.5698 8.38652V6.43652" stroke="#344054" stroke-width="1.5" stroke-miterlimit="10" stroke-linecap="round" stroke-linejoin="round"/>
<path d="M15.5702 13.5865C17.0062 13.5865 18.1702 12.4224 18.1702 10.9865C18.1702 9.55053 17.0062 8.38647 15.5702 8.38647C14.1343 8.38647 12.9702 9.55053 12.9702 10.9865C12.9702 12.4224 14.1343 13.5865 15.5702 13.5865Z" stroke="#344054" stroke-width="1.5" stroke-miterlimit="10" stroke-linecap="round" stroke-linejoin="round"/>
<path d="M8.43018 19.4366V17.4866" stroke="#344054" stroke-width="1.5" stroke-miterlimit="10" stroke-linecap="round" stroke-linejoin="round"/>
<path d="M8.43018 10.3365V6.43652" stroke="#344054" stroke-width="1.5" stroke-miterlimit="10" stroke-linecap="round" stroke-linejoin="round"/>
<path d="M8.43008 17.4866C9.86602 17.4866 11.0301 16.3226 11.0301 14.8866C11.0301 13.4507 9.86602 12.2866 8.43008 12.2866C6.99414 12.2866 5.83008 13.4507 5.83008 14.8866C5.83008 16.3226 6.99414 17.4866 8.43008 17.4866Z" stroke="#344054" stroke-width="1.5" stroke-miterlimit="10" stroke-linecap="round" stroke-linejoin="round"/>
</svg>
