<svg width="22" height="22" viewBox="0 0 22 22" fill="none" xmlns="http://www.w3.org/2000/svg">
<path fill-rule="evenodd" clip-rule="evenodd" d="M0 10C0 4.38065 5.02658 0 11 0C16.9734 0 22 4.38065 22 10C22 12.4862 21.061 15.1939 19.3598 17.0672C19.1958 17.2477 19.0977 17.3562 19.0301 17.4383L19.0226 17.4476L19.0056 17.4688L19.005 17.4785C19.0004 17.5571 19 17.6653 19 17.8666L19 17.9346C19.0001 18.732 19.0001 19.4297 18.9282 19.969C18.8544 20.5217 18.6748 21.181 18.0751 21.6075C17.9362 21.7062 17.7863 21.7885 17.6285 21.8527C16.9468 22.1298 16.294 21.9276 15.7882 21.6932C15.2944 21.4645 14.7058 21.09 14.033 20.6621L13.1249 20.0845C12.9575 19.978 12.8699 19.9229 12.8042 19.8866L12.7982 19.8833L12.7737 19.8844C12.6819 19.8893 12.5561 19.9028 12.3336 19.9272C11.8961 19.9753 11.451 20 11 20C5.02658 20 0 15.6193 0 10ZM7.5 6C6.39543 6 5.5 6.89543 5.5 8V12C5.5 13.1046 6.39543 14 7.5 14H11.5C12.4044 14 13.1685 13.3998 13.4158 12.5759L15.0528 13.3944C15.3628 13.5494 15.7309 13.5329 16.0257 13.3507C16.3205 13.1684 16.5 12.8466 16.5 12.5V7.5C16.5 7.15342 16.3205 6.83156 16.0257 6.64935C15.7309 6.46714 15.3628 6.45058 15.0528 6.60557L13.4158 7.42405C13.1685 6.60024 12.4044 6 11.5 6H7.5ZM7.5 8H11.5V8.19098C11.5 9.30606 12.6735 10.0313 13.6708 9.53262L14.5 9.11803V10.882L13.6708 10.4674C12.6735 9.9687 11.5 10.6939 11.5 11.809V12H7.5V8Z" fill="#0B4A6F"/>
</svg>
