<svg width="20" height="16" viewBox="0 0 20 16" fill="none" xmlns="http://www.w3.org/2000/svg">
  <rect width="20" height="16" fill="#B22234"/>
  <rect width="20" height="1.23" fill="#FFFFFF"/>
  <rect y="2.46" width="20" height="1.23" fill="#FFFFFF"/>
  <rect y="4.92" width="20" height="1.23" fill="#FFFFFF"/>
  <rect y="7.38" width="20" height="1.23" fill="#FFFFFF"/>
  <rect y="9.84" width="20" height="1.23" fill="#FFFFFF"/>
  <rect y="12.3" width="20" height="1.23" fill="#FFFFFF"/>
  <rect y="14.76" width="20" height="1.23" fill="#FFFFFF"/>
  <rect width="8" height="8.46" fill="#3C3B6E"/>
  <g fill="#FFFFFF">
    <circle cx="1" cy="1" r="0.3"/>
    <circle cx="3" cy="1" r="0.3"/>
    <circle cx="5" cy="1" r="0.3"/>
    <circle cx="7" cy="1" r="0.3"/>
    <circle cx="2" cy="2.46" r="0.3"/>
    <circle cx="4" cy="2.46" r="0.3"/>
    <circle cx="6" cy="2.46" r="0.3"/>
    <circle cx="1" cy="3.92" r="0.3"/>
    <circle cx="3" cy="3.92" r="0.3"/>
    <circle cx="5" cy="3.92" r="0.3"/>
    <circle cx="7" cy="3.92" r="0.3"/>
    <circle cx="2" cy="5.38" r="0.3"/>
    <circle cx="4" cy="5.38" r="0.3"/>
    <circle cx="6" cy="5.38" r="0.3"/>
    <circle cx="1" cy="6.84" r="0.3"/>
    <circle cx="3" cy="6.84" r="0.3"/>
    <circle cx="5" cy="6.84" r="0.3"/>
    <circle cx="7" cy="6.84" r="0.3"/>
    <circle cx="2" cy="8.3" r="0.3"/>
    <circle cx="4" cy="8.3" r="0.3"/>
    <circle cx="6" cy="8.3" r="0.3"/>
  </g>
</svg>
