<svg width="173" height="24" viewBox="0 0 173 24" fill="none" xmlns="http://www.w3.org/2000/svg">
<path d="M18.112 3.456L14.976 6.208C13.728 4.896 11.552 4.32 9.792 4.32C7.584 4.32 5.792 5.248 5.792 6.784C5.792 8.832 7.744 9.216 10.624 9.472C15.04 9.856 19.232 11.552 19.232 16.736C19.232 21.728 14.624 23.904 9.792 23.936C5.92 23.968 1.888 22.464 0 19.328L2.976 16.224C4.704 18.432 7.552 19.392 9.824 19.392C12.48 19.392 14.304 18.336 14.304 16.736C14.336 14.848 12.832 13.984 9.792 13.728C5.056 13.28 0.832 12.096 0.896 6.816C0.928 2.368 5.152 0 9.76 0C13.216 0 15.808 0.768 18.112 3.456Z" fill="#344054"/>
<path d="M33.5455 9.216L33.7055 7.392H38.0255C38.0255 12.64 38.0255 17.952 38.0255 23.2H33.8655L33.6095 21.216C32.5535 22.88 30.2815 23.52 28.7455 23.552C24.0095 23.584 20.5855 20.512 20.5855 15.296C20.5855 10.048 24.2015 6.976 28.8735 7.04C30.8575 7.04 32.7135 7.808 33.5455 9.216ZM29.3535 11.104C27.0495 11.104 25.1935 12.672 25.1935 15.296C25.1935 17.92 27.0495 19.456 29.3535 19.456C31.9455 19.456 33.5455 17.44 33.5455 15.456C33.5455 13.184 32.1055 11.104 29.3535 11.104Z" fill="#344054"/>
<path d="M57.311 23.2H52.671V14.848C52.671 12.416 51.615 11.168 49.407 11.168C47.263 11.136 45.823 12.992 45.823 15.04V23.2H41.279V7.392H45.439L45.599 9.408C47.007 7.584 48.799 6.976 50.719 7.008C54.271 7.008 57.311 8.672 57.311 14.816V23.2Z" fill="#344054"/>
<path d="M62.0218 3.584L66.6298 3.072V7.488H70.6298V11.328H66.5978V17.28C66.5978 18.944 67.5258 19.392 68.3898 19.392C68.9338 19.392 69.7978 19.264 70.3098 19.008L71.3658 22.848C70.2138 23.296 69.2858 23.488 68.0378 23.552C64.6137 23.712 62.0218 22.208 62.0218 17.28V11.328H59.2058V7.488H62.0218V3.584Z" fill="#344054"/>
<path d="M88.516 16.8H76.9C77.124 18.336 78.596 19.584 81.188 19.584C82.436 19.584 84.164 19.296 85.284 18.336L87.876 21.216C86.18 22.88 83.46 23.552 81.092 23.552C75.364 23.552 72.228 20.192 72.228 15.136C72.228 10.336 75.46 6.976 80.612 6.976C85.988 6.976 89.508 10.336 88.516 16.8ZM76.9 13.44H84.388C84.292 11.712 82.532 10.912 80.612 10.912C78.756 10.912 77.348 11.872 76.9 13.44Z" fill="#344054"/>
<path d="M91.2155 0.799999H96.2075V18.624H107.408V23.2H91.2155V0.799999Z" fill="#344054"/>
<path d="M113.827 7.36V23.2H109.219V7.36H113.827ZM108.899 3.2C108.899 6.656 114.147 6.656 114.147 3.2C114.147 -0.256001 108.899 -0.256001 108.899 3.2Z" fill="#344054"/>
<path d="M133.111 23.2H128.471V14.848C128.471 12.416 127.415 11.168 125.207 11.168C123.063 11.136 121.623 12.992 121.623 15.04V23.2H117.079V7.392H121.239L121.399 9.408C122.807 7.584 124.599 6.976 126.519 7.008C130.071 7.008 133.111 8.672 133.111 14.816V23.2Z" fill="#344054"/>
<path d="M136.158 0.831999H140.766V13.6L145.438 7.424H150.878V7.712L145.086 14.848L151.774 22.848V23.2H146.238L140.766 16.256V23.2H136.158V0.831999Z" fill="#344054"/>
<path d="M159.114 10.688H163.53V6.08H167.754V10.688H172.266V14.72H167.754V19.328H163.53V14.72H159.114V10.688Z" fill="#344054"/>
</svg>
