<svg width="24" height="25" viewBox="0 0 24 25" fill="none" xmlns="http://www.w3.org/2000/svg">
<path d="M11.7402 13.9365C11.7402 14.8958 10.9692 15.6864 9.99023 15.6865C9.04428 15.6865 8.29492 14.9483 8.24512 14.0332C8.19463 14.9527 7.43174 15.6865 6.5 15.6865C5.5209 15.6865 4.75 14.8958 4.75 13.9365C4.75 12.9723 5.53579 12.1865 6.5 12.1865C7.43009 12.1865 8.1922 12.9178 8.24512 13.835C8.29804 12.9178 9.06015 12.1865 9.99023 12.1865C10.9543 12.1867 11.7402 12.9724 11.7402 13.9365ZM11.7402 13.9365C11.7402 12.9723 12.526 12.1865 13.4902 12.1865C14.4543 12.1867 15.2402 12.9724 15.2402 13.9365C15.2402 14.9007 14.4543 15.6864 13.4902 15.6865C12.5111 15.6865 11.7402 14.8958 11.7402 13.9365ZM6.79004 7.68652H13.1904C14.669 7.6866 15.6422 8.05729 16.251 8.66602C16.8596 9.27482 17.2305 10.248 17.2305 11.7266V15.7266C17.2305 15.9689 17.2201 16.1856 17.1953 16.3838L17.1943 16.3984L17.1924 16.4131C17.0889 17.627 16.692 18.4282 16.0918 18.9375C15.4816 19.4551 14.5499 19.7665 13.1904 19.7666H12.79C12.304 19.7666 11.8414 19.9979 11.5498 20.3867L10.3496 21.9863L10.3486 21.9883C10.2029 22.1833 10.0657 22.2187 9.99023 22.2188C9.9148 22.2188 9.77682 22.1837 9.63086 21.9883L9.62988 21.9863L8.42969 20.3867L8.42578 20.3809L8.30273 20.2412C8.17169 20.112 8.02052 20.0134 7.88184 19.9434C7.69751 19.8502 7.45288 19.7667 7.19043 19.7666H6.79004C5.20753 19.7666 4.26594 19.5573 3.69238 19.0566C3.14406 18.5778 2.75001 17.662 2.75 15.7266V11.7266C2.75 10.3678 3.06381 9.43593 3.58301 8.8252C4.09398 8.22417 4.89513 7.82702 6.10352 7.72363L6.11816 7.72266L6.13281 7.7207C6.331 7.69593 6.54769 7.68652 6.79004 7.68652Z" fill="#0B4A6F" stroke="#0B4A6F" stroke-width="1.5"/>
<path d="M21.9798 7.72652V11.7265C21.9798 13.7265 21.3598 15.0865 20.1198 15.8365C19.8198 16.0165 19.4698 15.7765 19.4698 15.4265L19.4798 11.7265C19.4798 7.72652 17.1898 5.43652 13.1898 5.43652L7.09976 5.44652C6.74976 5.44652 6.50976 5.09652 6.68976 4.79652C7.43976 3.55652 8.79976 2.93652 10.7898 2.93652H17.1898C20.3798 2.93652 21.9798 4.53652 21.9798 7.72652Z" fill="#0B4A6F"/>
</svg>
