<svg width="24" height="25" viewBox="0 0 24 25" fill="none" xmlns="http://www.w3.org/2000/svg">
<path d="M7.80957 3.68652H16.1904C17.8612 3.68661 19.104 4.18213 19.9277 5.00684C20.7513 5.83142 21.2448 7.07393 21.2402 8.74414V17.127C21.2401 18.7975 20.745 20.0411 19.9199 20.8662C19.0947 21.6914 17.8505 22.1865 16.1797 22.1865H7.80957C6.13895 22.1864 4.89533 21.6913 4.07031 20.8652C3.24523 20.039 2.75 18.7925 2.75 17.1162V8.74609C2.75008 7.07546 3.2452 5.83195 4.07031 5.00684C4.89543 4.18172 6.13894 3.68661 7.80957 3.68652ZM8.41992 4.93652C7.59574 4.93657 6.91992 5.61234 6.91992 6.43652V10.3369C6.92005 10.821 7.15423 11.2526 7.51367 11.5273C6.03609 11.9292 4.9502 13.2886 4.9502 14.8867C4.95027 16.2668 5.75676 17.4474 6.91992 18.0068V19.4365C6.91992 20.2607 7.59574 20.9365 8.41992 20.9365C9.24414 20.9365 9.91992 20.2607 9.91992 19.4365V18.0078C11.0822 17.45 11.9003 16.2708 11.9004 14.8867C11.9004 13.2757 10.8031 11.9251 9.3252 11.5264C9.68477 11.2516 9.9198 10.8211 9.91992 10.3369V6.43652C9.91992 5.61231 9.24414 4.93652 8.41992 4.93652ZM15.5801 4.93652C14.7559 4.93652 14.0801 5.61231 14.0801 6.43652V7.85449C12.9176 8.41224 12.0996 9.59233 12.0996 10.9766C12.0996 12.5904 13.2007 13.9428 14.6826 14.3389C14.3181 14.6132 14.0802 15.0481 14.0801 15.5361V19.4365C14.0801 20.2607 14.7559 20.9365 15.5801 20.9365C16.4043 20.9365 17.0801 20.2607 17.0801 19.4365V15.5361C17.08 15.0473 16.841 14.6122 16.4756 14.3379C17.9566 13.9422 19.0498 12.5908 19.0498 10.9863C19.0497 9.60608 18.2434 8.42464 17.0801 7.86523V6.43652C17.0801 5.61234 16.4043 4.93657 15.5801 4.93652Z" fill="#0B4A6F" stroke="#0B4A6F" stroke-width="1.5"/>
</svg>
